<svg xmlns="http://www.w3.org/2000/svg" fill="none" viewBox="0 0 1105 326" height="326" width="1105">
<path fill="#3CB4E3" d="M72.7 320.125C70.7 316.925 63.2 304.225 56.1 291.825C49 279.425 42.3 268.125 41.3 266.625C40.2 265.225 39.4 263.825 39.4 263.525C39.4 262.925 36.7 258.225 24.2 236.825C5.3 204.325 0 188.125 0 163.325C0 149.525 1 143.125 5.1 130.325C9.4 117.025 14.2 108.025 42.9 58.825C44.7 55.825 51.3 44.325 57.7 33.225C76.7 0.125 76.5 0.325 79.9 0.025C81.6 -0.075 83.4 0.125 84.1 0.625C84.7 1.025 88.4 6.725 92.2 13.325C96 19.925 103.5 33.025 108.9 42.325C114.2 51.725 119 59.725 119.5 60.225C121 61.925 120.5 64.725 118 68.625C116.7 70.625 114.5 74.725 113 77.625C111.6 80.425 110 82.825 109.5 82.825C108.7 82.825 106.1 78.625 95.4 59.825C85 41.625 81 34.825 80.5 34.825C79.8 34.825 79.3 35.525 71.9 48.325C61.4 66.425 59.8 69.125 49.5 87.325C43.8 97.225 37.9 107.425 36.3 109.925C19.8 136.025 15.2 163.925 23.4 189.325C25.7 196.425 30.1 205.525 38.7 221.125C45.3 233.025 51 242.825 51.3 242.825C51.7 242.825 52.4 242.025 53 241.125C56.2 235.925 95.5 168.225 100.2 159.825C101.6 157.325 106.4 149.025 110.9 141.325C115.4 133.625 121.3 123.325 124.1 118.325C131.8 104.725 136.9 96.525 138.1 96.125C139.2 95.725 146.8 107.025 150.2 114.325C158.1 131.125 160.4 140.525 161.1 158.625C162.2 187.625 158.7 198.525 134.4 240.825C127.6 252.625 120.6 264.925 118.8 268.125C117 271.225 112.3 279.325 108.3 286.125C96.7 305.925 96 307.125 94 310.925C92.9 312.925 90.5 317.025 88.5 319.925C85.2 324.925 84.5 325.325 80.7 325.625C76.5 325.925 76.4 325.825 72.7 320.125ZM97.1 265.725C136.6 197.125 135.6 198.925 139.5 183.925C141.6 175.725 142.3 163.925 141.3 154.425C140.4 145.825 138.4 136.825 137.4 136.825C136.9 136.825 134.2 141.025 131.3 146.125C128.4 151.125 123.3 160.025 119.8 165.825C97.8 202.825 80.2 234.825 77.8 242.325C74.3 253.225 73.6 266.525 75.9 277.625C77.9 287.625 80.2 293.425 81.5 292.125C82 291.625 89 279.725 97.1 265.725Z"></path>
<path fill="#3CB4E3" d="M614.4 263.125C599.1 260.525 584.7 250.425 578.2 237.525C573.9 229.025 572.4 222.725 572.4 213.225C572.4 197.025 576.1 186.925 585.4 177.825C599.4 164.025 621.5 157.825 656.9 157.825H673.4V151.225C673.4 133.025 666.2 125.825 648 125.825C639 125.825 634.8 127.025 630.2 130.825C627.4 133.125 626 135.425 624.8 139.425C624 142.425 623 144.825 622.6 144.925C622.2 144.925 612.6 145.125 601.2 145.325L580.4 145.625V141.425C580.4 131.125 586.8 117.625 595.5 109.325C606.4 98.925 621.5 93.925 644.5 93.125C682.6 91.725 706.7 102.825 714.2 125.425C717.7 135.825 718.3 146.825 718.8 202.825C719.1 231.725 719.6 256.525 719.9 258.125L720.6 260.825H698.6C676.7 260.825 676.6 260.825 676 258.625C675.7 257.325 675.4 254.725 675.4 252.825C675.3 246.025 674 245.825 668.2 251.425C658.6 260.825 648.8 263.825 628.9 263.625C622.3 263.625 615.8 263.325 614.4 263.125ZM653.9 229.225C660 227.625 665.8 223.025 668.5 217.525C671.1 212.625 673.3 200.625 673.4 192.125V185.825H661.2C645 185.825 637.4 187.125 630 190.725C622 194.725 619.1 198.925 618.6 207.325C617.4 226.425 631.8 235.325 653.9 229.225Z"></path>
<path fill="#3CB4E3" d="M781.2 262.825C759.6 258.925 742.3 247.625 734.9 232.425C730.5 223.525 727.1 211.825 728.8 211.225C729.4 211.025 739.8 210.925 751.9 211.025L773.8 211.325L774.6 214.325C775.8 219.125 781.7 225.325 787.5 227.825C797.5 232.025 814.7 231.525 821.6 226.625C826.3 223.325 827.8 213.825 824.4 208.425C821.2 203.225 814.6 200.425 787.8 193.225C778.6 190.725 763 184.725 757.4 181.525C749.3 176.925 740.5 168.225 737.7 162.025C732.3 149.725 733.1 131.225 739.6 119.725C741.5 116.325 747.5 108.625 749.9 106.625C753.5 103.425 767.8 97.125 775.4 95.225C786.7 92.325 814.7 92.625 826.2 95.625C837.8 98.625 849.1 104.725 855.4 111.425C861.9 118.325 867.3 129.525 867.7 136.725L867.9 142.025L846.8 142.225L825.7 142.325L823.5 137.625C822.3 135.025 819.8 131.725 817.9 130.225C808.8 123.325 789.2 123.225 782.3 130.125C779.8 132.525 779.4 133.725 779.4 138.325C779.4 143.025 779.8 143.925 782.4 146.125C786.3 149.425 793.5 152.125 811.9 157.025C838.7 164.125 851 169.725 860.9 179.325C870.5 188.625 874.2 201.525 872.3 218.525C870.5 234.825 859.4 249.525 843.8 256.425C832 261.625 824.4 263.025 804.4 263.325C794.2 263.525 783.8 263.325 781.2 262.825Z"></path>
<path fill="#3CB4E3" d="M525.6 261.725C514.9 259.825 503.7 252.225 500 244.325C495.6 235.025 495.3 231.725 495.4 180.125V130.825H482.4H469.4V113.825C469.4 98.325 469.6 96.825 471.2 96.725C472.1 96.625 477.9 96.325 483.9 95.925L494.9 95.325L495.2 72.625L495.4 49.825H517.9H540.4V72.825V95.825L542.7 95.925C543.9 96.025 550.4 95.925 557.1 95.825C563.8 95.725 570.2 95.925 571.3 96.325C573.2 96.925 573.3 97.725 573.2 113.925L573 130.825H556.7H540.4V170.625C540.4 214.125 541 220.825 544.9 224.825C547.2 227.125 548.4 227.325 557.7 227.825L567.9 228.325V244.325V260.325L563.4 261.025C554.8 262.225 530.9 262.725 525.6 261.725Z"></path>
<path fill="#3CB4E3" d="M303.9 259.625C303.7 258.925 299.2 245.525 293.9 229.825C288.6 214.125 278.9 185.625 272.4 166.325L260.6 131.325L237 130.825L213.3 130.325L207.7 113.925C203.2 100.725 202.4 97.425 203.5 96.725C205.3 95.625 295.5 95.625 297.3 96.725C299.2 97.925 321.6 179.825 326.9 205.125C328.2 211.125 329.4 216.125 329.7 216.425C330 216.725 331.2 212.725 332.3 207.625C334.8 196.625 342.5 168.525 345.9 157.825C347.2 153.725 351.7 138.825 356 124.825C360.2 110.825 364.1 98.525 364.6 97.525C365.4 96.025 367.5 95.825 387 95.825C405.4 95.825 408.5 96.025 409.1 97.325C409.6 98.725 406.3 108.925 398.2 131.325C396.6 135.725 392.8 146.325 389.9 154.825C386.9 163.325 382 177.525 378.8 186.325C375.7 195.125 368.5 215.425 362.9 231.325L352.7 260.325L328.5 260.625C309.7 260.825 304.3 260.625 303.9 259.625Z"></path>
<path fill="#3CB4E3" d="M416.1 260.125C415.7 259.825 415.4 222.925 415.4 178.225V96.925L418.7 96.325C420.5 95.925 430.7 95.825 441.4 96.025L460.9 96.325L461.2 178.625L461.4 260.825H439.1C426.8 260.825 416.4 260.525 416.1 260.125Z"></path>
<path fill="#3CB4E3" d="M886.2 260.125C886 259.625 885.8 223.025 885.9 178.625C885.9 122.725 886.2 97.625 887 96.825C887.7 96.125 895.4 95.925 909.9 96.025L931.8 96.325L931.6 176.325C931.5 220.325 931.4 257.325 931.4 258.625V260.825H909C896.6 260.825 886.4 260.525 886.2 260.125Z"></path>
<path fill="#3CB4E3" d="M946.4 259.625C946.4 259.025 947 257.725 947.8 256.925C948.5 256.025 952.2 250.425 955.9 244.325C959.7 238.325 966 228.325 970 222.225C980.2 206.525 994.9 182.625 995.6 180.725C996 179.825 995.9 178.725 995.4 178.225C994.9 177.725 986.9 164.525 977.5 148.825C968.1 133.125 958.5 117.225 956.1 113.325C947.9 100.225 946.8 97.825 948.4 96.825C950 95.825 991.5 95.425 995.1 96.425C996.5 96.825 999 100.125 1002.3 105.825C1005.1 110.625 1007.4 114.925 1007.4 115.325C1007.4 115.725 1008.9 118.625 1010.8 121.725C1012.7 124.825 1016.1 130.925 1018.4 135.325C1024.7 147.125 1024.6 147.125 1028.9 140.325C1030.9 137.225 1034.4 131.425 1036.5 127.425C1038.6 123.525 1043.7 114.925 1047.6 108.325L1054.9 96.325L1077.9 96.025C1090.6 95.925 1101.9 96.025 1103.1 96.325C1105.3 96.825 1105.3 96.925 1101.8 102.625C1099.9 105.725 1096.5 111.025 1094.4 114.325C1092.3 117.625 1089.3 122.325 1087.8 124.825C1086.3 127.325 1081.9 134.325 1077.9 140.325C1062.7 163.725 1053.4 179.125 1053.4 180.625C1053.4 181.625 1055.1 184.625 1057.2 187.325C1064.8 197.425 1079.1 218.225 1087.6 231.625C1092.3 239.125 1098.1 248.225 1100.3 251.725C1102.6 255.225 1104.4 258.725 1104.4 259.525C1104.4 260.525 1099.5 260.825 1079 260.825H1053.6L1050.7 255.125C1044.5 242.725 1028.1 211.225 1026.7 208.925C1024.9 206.125 1024.8 206.225 1019.2 216.825C1016.7 221.525 1010.9 232.325 1006.3 240.825C1001.8 249.325 997.5 257.325 997 258.525C995.9 260.825 995.8 260.825 971.2 260.825C952.9 260.825 946.4 260.525 946.4 259.625Z"></path>
<path fill="#3CB4E3" d="M416.1 84.125C415.7 83.825 415.4 75.925 415.4 66.625V49.825H438.4H461.4V67.325V84.825H439.1C426.8 84.825 416.4 84.525 416.1 84.125Z"></path>
<path fill="#3CB4E3" d="M886.1 84.125C885.1 83.225 885.3 52.625 886.2 51.025C886.9 50.125 892.2 49.825 909.4 50.025L931.7 50.325L931.6 65.825C931.5 74.325 931.4 82.125 931.4 83.125C931.4 84.725 929.7 84.825 909.1 84.825C896.8 84.825 886.4 84.525 886.1 84.125Z"></path>
</svg>
